<?xml version="1.0" encoding="UTF-8"?>
<!DOCTYPE svg PUBLIC "-//W3C//DTD SVG 1.1//EN" "http://www.w3.org/Graphics/SVG/1.1/DTD/svg11.dtd">
<!-- Creator: CorelDRAW -->
<svg xmlns="http://www.w3.org/2000/svg" xml:space="preserve" width="5.255mm" height="7.0185mm" version="1.1" style="shape-rendering:geometricPrecision; text-rendering:geometricPrecision; image-rendering:optimizeQuality; fill-rule:evenodd; clip-rule:evenodd"
viewBox="0 0 0.0095 0.0127"
 xmlns:xlink="http://www.w3.org/1999/xlink">
 <defs>
  <style type="text/css">
   <![CDATA[
    .fil0 {fill:white}
   ]]>
  </style>
 </defs>
 <g id="Layer_x0020_1">
  <metadata id="CorelCorpID_0Corel-Layer"/>
  <path class="fil0" d="M0.0044 0l0.0007 0 0 0.0018 -0.0007 0 0 -0.0018zm0.0018 0.0019l0.0007 -0.0017 0.0007 0.0003 -0.0007 0.0017 -0.0007 -0.0003zm0.0016 0.0009l0.0012 -0.0013 0.0006 0.0005 -0.0012 0.0013 -0.0006 -0.0005zm-0.0058 -0.0023l0.0007 -0.0003 0.0007 0.0017 -0.0007 0.0003 -0.0007 -0.0017zm-0.002 0.0014l0.0006 -0.0005 0.0012 0.0013 -0.0006 0.0005 -0.0012 -0.0013zm0.0014 0.0071l0.0068 0 0 0.0009 -0.0068 0 0 -0.0009zm0.0069 0.0016l-0.0071 0c-0.0004,0.0002 -0.0006,0.0006 -0.0006,0.0011l0 0.001 0.0084 0 0 -0.001c0,-0.0005 -0.0003,-0.0009 -0.0006,-0.0011zm-0.0002 -0.0043c0,-0.0019 -0.0015,-0.0034 -0.0034,-0.0034 -0.0019,0 -0.0034,0.0015 -0.0034,0.0034l0 0.0019 0.0068 0 0 -0.0019zm-0.003 0.001l-0.0007 0 0 -0.0007 0.0007 0 0 0.0007zm0 -0.0013l-0.0007 0 0 -0.002 0.0007 0 0 0.002z"/>
 </g>
</svg>
