<?xml version="1.0" encoding="UTF-8"?>
<!DOCTYPE svg PUBLIC "-//W3C//DTD SVG 1.1//EN" "http://www.w3.org/Graphics/SVG/1.1/DTD/svg11.dtd">
<!-- Creator: CorelDRAW -->
<svg xmlns="http://www.w3.org/2000/svg" xml:space="preserve" width="7.9376mm" height="5.1096mm" version="1.1" style="shape-rendering:geometricPrecision; text-rendering:geometricPrecision; image-rendering:optimizeQuality; fill-rule:evenodd; clip-rule:evenodd"
viewBox="0 0 0.022 0.0142"
 xmlns:xlink="http://www.w3.org/1999/xlink">
 <defs>
  <style type="text/css">
   <![CDATA[
    .fil0 {fill:white}
   ]]>
  </style>
 </defs>
 <g id="Layer_x0020_1">
  <metadata id="CorelCorpID_0Corel-Layer"/>
  <path class="fil0" d="M0.011 0.0035c-0.002,0 -0.0035,0.0016 -0.0035,0.0035 0,0.002 0.0016,0.0035 0.0035,0.0035 0.002,0 0.0035,-0.0016 0.0035,-0.0035 0,-0.002 -0.0016,-0.0035 -0.0035,-0.0035zm-0.0003 0.0025c-0.0004,0 -0.0008,0.0004 -0.0008,0.0008l-0.0012 0c0,-0.0011 0.0009,-0.002 0.002,-0.002l0 0.0012zm0.011 0.0003c-0.0012,-0.0015 -0.0055,-0.0064 -0.0108,-0.0064 -0.0053,0 -0.0096,0.0049 -0.0108,0.0064 -0.0003,0.0004 -0.0003,0.001 0,0.0015 0.0012,0.0015 0.0055,0.0064 0.0108,0.0064 0.0053,0 0.0096,-0.0049 0.0108,-0.0064 0.0003,-0.0004 0.0003,-0.001 0,-0.0015zm-0.0108 0.0059c-0.0028,0 -0.0051,-0.0023 -0.0051,-0.0051 0,-0.0028 0.0023,-0.0051 0.0051,-0.0051 0.0028,0 0.0051,0.0023 0.0051,0.0051 0,0.0028 -0.0023,0.0051 -0.0051,0.0051z"/>
 </g>
</svg>
