<?xml version="1.0" encoding="UTF-8"?>
<!DOCTYPE svg PUBLIC "-//W3C//DTD SVG 1.1//EN" "http://www.w3.org/Graphics/SVG/1.1/DTD/svg11.dtd">
<!-- Creator: CorelDRAW -->
<svg xmlns="http://www.w3.org/2000/svg" xml:space="preserve" width="9.7896mm" height="9.7896mm" version="1.1" style="shape-rendering:geometricPrecision; text-rendering:geometricPrecision; image-rendering:optimizeQuality; fill-rule:evenodd; clip-rule:evenodd"
viewBox="0 0 0.0406 0.0406"
 xmlns:xlink="http://www.w3.org/1999/xlink">
 <defs>
  <style type="text/css">
   <![CDATA[
    .fil0 {fill:white}
   ]]>
  </style>
 </defs>
 <g id="Layer_x0020_1">
  <metadata id="CorelCorpID_0Corel-Layer"/>
  <path class="fil0" d="M0.0156 0l-0.0127 0c-0.0016,0 -0.003,0.0013 -0.003,0.003l0 0.0076c0,0.0016 0.0013,0.003 0.003,0.003l0.0127 0c0.0016,0 0.003,-0.0013 0.003,-0.003l0 -0.0076c0,-0.0016 -0.0013,-0.003 -0.003,-0.003zm0 0.0169l-0.0127 0c-0.0016,0 -0.003,0.0013 -0.003,0.003l0 0.0178c0,0.0016 0.0013,0.003 0.003,0.003l0.0127 0c0.0016,0 0.003,-0.0013 0.003,-0.003l0 -0.0178c0,-0.0016 -0.0013,-0.003 -0.003,-0.003zm0.022 0.0101l-0.0127 0c-0.0016,0 -0.003,0.0013 -0.003,0.003l0 0.0076c0,0.0016 0.0013,0.003 0.003,0.003l0.0127 0c0.0016,0 0.003,-0.0013 0.003,-0.003l0 -0.0076c0,-0.0016 -0.0013,-0.003 -0.003,-0.003zm0 -0.0271l-0.0127 0c-0.0016,0 -0.003,0.0013 -0.003,0.003l0 0.0178c0,0.0016 0.0013,0.003 0.003,0.003l0.0127 0c0.0016,0 0.003,-0.0013 0.003,-0.003l0 -0.0178c0,-0.0016 -0.0013,-0.003 -0.003,-0.003z"/>
 </g>
</svg>
