<?xml version="1.0" encoding="UTF-8"?>
<!DOCTYPE svg PUBLIC "-//W3C//DTD SVG 1.1//EN" "http://www.w3.org/Graphics/SVG/1.1/DTD/svg11.dtd">
<!-- Creator: CorelDRAW -->
<svg xmlns="http://www.w3.org/2000/svg" xml:space="preserve" width="7.457mm" height="9.7896mm" version="1.1" style="shape-rendering:geometricPrecision; text-rendering:geometricPrecision; image-rendering:optimizeQuality; fill-rule:evenodd; clip-rule:evenodd"
viewBox="0 0 0.0216 0.0284"
 xmlns:xlink="http://www.w3.org/1999/xlink">
 <defs>
  <style type="text/css">
   <![CDATA[
    .fil0 {fill:white}
   ]]>
  </style>
 </defs>
 <g id="Layer_x0020_1">
  <metadata id="CorelCorpID_0Corel-Layer"/>
  <path class="fil0" d="M0.0211 0.0058c-0.0016,-0.0016 -0.0038,-0.0038 -0.0053,-0.0053l0 0.0053 0.0053 -0zm0.0005 0.0017l-0.0075 0 0 -0.0075 -0.0141 0 0 0.0272 0.0071 -0.007 0.0025 0.0025 0.005 -0.005 -0.0021 0 0 -0.0017 0.005 0 0 0.005 -0.0017 0 0 -0.0022 -0.0062 0.0062 -0.0025 -0.0025 -0.0059 0.0059 0.0204 0 0 -0.0209zm-0.0108 0.0041l-0.0067 0 0 -0.0017 0.0067 0 0 0.0017zm0 -0.0041l-0.0067 0 0 -0.0017 0.0067 0 0 0.0017z"/>
 </g>
</svg>
