<?xml version="1.0" encoding="UTF-8"?>
<!DOCTYPE svg PUBLIC "-//W3C//DTD SVG 1.1//EN" "http://www.w3.org/Graphics/SVG/1.1/DTD/svg11.dtd">
<!-- Creator: CorelDRAW -->
<svg xmlns="http://www.w3.org/2000/svg" xml:space="preserve" width="5.8148mm" height="9.7896mm" version="1.1" style="shape-rendering:geometricPrecision; text-rendering:geometricPrecision; image-rendering:optimizeQuality; fill-rule:evenodd; clip-rule:evenodd"
viewBox="0 0 0.0139 0.0234"
 xmlns:xlink="http://www.w3.org/1999/xlink">
 <defs>
  <style type="text/css">
   <![CDATA[
    .fil0 {fill:white}
   ]]>
  </style>
 </defs>
 <g id="Layer_x0020_1">
  <metadata id="CorelCorpID_0Corel-Layer"/>
  <path class="fil0" d="M0.0129 0.0181l0 -0.0096 -0.0083 0 0 0.0096 0.0005 0 0 0.0005 0 0.0004 0.0023 0 0 -0.0003c0,-0.0003 0.0003,-0.0006 0.0006,-0.0006l0.0016 0c0.0003,0 0.0006,0.0003 0.0006,0.0006l0 0.0003 0.0023 0 0 -0.0004 0 -0.0005 0.0005 0zm-0.009 0.0041l0.0097 0 0 -0.0008 -0.0097 0 0 0.0008zm-0.0035 -0.004l0.002 0 0.0002 0.0002 0 0.0003c0.0001,0 0.0002,0.0001 0.0002,0.0002l0 0.0001 -0 0c0,0 0.0001,0 0.0001,0.0001l0 0.0001 0.0001 0 0 0.0004 0.0011 0 0 -0.0008c0,-0.0001 0.0001,-0.0002 0.0002,-0.0002l0.0005 0 0 0.0009 0.0032 0 0 -0.0007c0,-0.0001 0.0001,-0.0002 0.0002,-0.0002l0.0008 0 0.0008 0c0.0001,0 0.0002,0.0001 0.0002,0.0002l0 0.0007 0.0032 0 0 -0.0009 0.0005 0c0.0001,0 0.0002,0.0001 0.0002,0.0002l0 0.0024 -0.0007 0 -0.0042 0 -0.0042 0 -0.0007 0 0 -0.0002 -0.0028 0c-0.0006,0 -0.0011,-0.0005 -0.0011,-0.0011l0 -0.0004 0 -0.0004 0.0001 0 0 -0.0001c0,-0 0,-0.0001 0.0001,-0.0001l-0 0 0 -0.0001c0,-0.0001 0.0001,-0.0002 0.0002,-0.0002l0 0 0 -0.0003 0.0002 -0.0002zm0.0086 -0.0172l0.0002 0.0011 0.0001 0c0.0001,0 0.0002,0.0001 0.0002,0.0002l0 0.0004 0.0006 0c0.0001,0 0.0001,0.0001 0.0001,0.0001l0 0.0002 0.0011 0 0 -0.0016 -0.0004 -0.0004 -0.0018 0zm-0.0006 0.0011l0.0002 -0.0011 -0.0018 0 -0.0004 0.0004 0 0.0016 0.0011 0 0 -0.0002c0,-0.0001 0.0001,-0.0001 0.0001,-0.0001l0.0006 0 0 -0.0004c0,-0.0001 0.0001,-0.0002 0.0002,-0.0002l0.0001 0zm0.0004 0.0051l0.0045 0c0.0001,0 0.0002,0.0001 0.0002,0.0002l0 0.0006c0,0.0001 -0.0001,0.0002 -0.0002,0.0002l-0.0045 0 -0.0045 0c-0.0001,0 -0.0002,-0.0001 -0.0002,-0.0002l0 -0.0006c0,-0.0001 0.0001,-0.0002 0.0002,-0.0002l0.0045 0zm0 0.0163l0.0051 0 0 -0.0005c0,-0.0003 -0.0002,-0.0005 -0.0005,-0.0005l-0.0047 0 -0.0047 0c-0.0003,0 -0.0005,0.0002 -0.0005,0.0005l0 0.0005 0.0051 0zm0.0042 -0.0167l0 -0.0035c0,-0.0002 -0.0001,-0.0003 -0.0003,-0.0003l-0.0005 0 0 -0.002 -0.0009 -0.0009 -0.0025 0 -0.0025 0 -0.0009 0.0009 0 0.002 -0.0005 0c-0.0002,0 -0.0003,0.0001 -0.0003,0.0003l0 0.0035 0.0083 0z"/>
 </g>
</svg>
