<?xml version="1.0" encoding="UTF-8"?>
<!DOCTYPE svg PUBLIC "-//W3C//DTD SVG 1.1//EN" "http://www.w3.org/Graphics/SVG/1.1/DTD/svg11.dtd">
<!-- Creator: CorelDRAW -->
<svg xmlns="http://www.w3.org/2000/svg" xml:space="preserve" width="9.79mm" height="9.79mm" version="1.1" style="shape-rendering:geometricPrecision; text-rendering:geometricPrecision; image-rendering:optimizeQuality; fill-rule:evenodd; clip-rule:evenodd"
viewBox="0 0 0.0363 0.0363"
 xmlns:xlink="http://www.w3.org/1999/xlink">
 <defs>
  <style type="text/css">
   <![CDATA[
    .fil0 {fill:white;fill-rule:nonzero}
   ]]>
  </style>
 </defs>
 <g id="Layer_x0020_1">
  <metadata id="CorelCorpID_0Corel-Layer"/>
  <path class="fil0" d="M0.0233 0.013c0,-0.0007 -0.0005,-0.0012 -0.0012,-0.0012 -0.0007,0 -0.0012,0.0005 -0.0012,0.0012 0,0.0007 0.0005,0.0012 0.0012,0.0012 0.0007,0 0.0012,-0.0005 0.0012,-0.0012zm0.0068 0.0102c0,-0.0007 -0.0005,-0.0012 -0.0012,-0.0012 -0.0007,0 -0.0012,0.0005 -0.0012,0.0012 0,0.0007 0.0005,0.0012 0.0012,0.0012 0.0007,0 0.0012,-0.0005 0.0012,-0.0012zm0.0052 -0.0233l-0.0199 0c-0.0006,0 -0.0011,0.0005 -0.0011,0.0011l0 0.0352 0.021 0c0.0006,0 0.0011,-0.0005 0.0011,-0.0011l0 -0.0342c0,-0.0006 -0.0005,-0.0011 -0.0011,-0.0011l0 0zm-0.0121 0.0162l0 0.0139c0,0.0006 -0.0005,0.0011 -0.0011,0.0011 -0.0006,0 -0.0011,-0.0005 -0.0011,-0.0011l0 -0.0139c-0.0013,-0.0004 -0.0023,-0.0017 -0.0023,-0.0032 0,-0.0015 0.001,-0.0027 0.0023,-0.0032l0 -0.0037c0,-0.0006 0.0005,-0.0011 0.0011,-0.0011 0.0006,0 0.0011,0.0005 0.0011,0.0011l0 0.0037c0.0013,0.0004 0.0023,0.0017 0.0023,0.0032 0,0.0015 -0.001,0.0027 -0.0023,0.0032zm0.0068 0.0102l0 0.0037c0,0.0006 -0.0005,0.0011 -0.0011,0.0011 -0.0006,0 -0.0011,-0.0005 -0.0011,-0.0011l0 -0.0037c-0.0013,-0.0004 -0.0023,-0.0017 -0.0023,-0.0032 0,-0.0015 0.001,-0.0027 0.0023,-0.0032l0 -0.0139c0,-0.0006 0.0005,-0.0011 0.0011,-0.0011 0.0006,0 0.0011,0.0005 0.0011,0.0011l0 0.0139c0.0013,0.0004 0.0023,0.0017 0.0023,0.0032 0,0.0015 -0.001,0.0027 -0.0023,0.0032zm-0.0213 -0.013l0 0.0018c-0.0001,0 -0.0002,0.0001 -0.0004,0.0001l-0.0013 -0.0013c-0.0004,-0.0004 -0.0009,-0.0004 -0.0013,-0.0001 -0.0007,0.0005 -0.0014,0.0011 -0.0021,0.0017 -0.0006,0.0006 -0.0012,0.0013 -0.0017,0.0021 -0.0003,0.0004 -0.0002,0.001 0.0001,0.0013l0.0013 0.0013c-0.0001,0.0001 -0.0001,0.0002 -0.0001,0.0004l-0.0018 0c-0.0005,0 -0.0009,0.0004 -0.001,0.0009 -0.0002,0.0009 -0.0003,0.0018 -0.0003,0.0027 0,0.0009 0.0001,0.0018 0.0003,0.0027 0.0001,0.0005 0.0005,0.0009 0.001,0.0009l0.0018 0c0,0.0001 0.0001,0.0002 0.0001,0.0004l-0.0013 0.0013c-0.0004,0.0004 -0.0004,0.0009 -0.0001,0.0013 0.0005,0.0007 0.0011,0.0014 0.0017,0.0021 0.0006,0.0006 0.0013,0.0012 0.0021,0.0017 0.0004,0.0003 0.001,0.0002 0.0013,-0.0001l0.0013 -0.0013c0.0001,0.0001 0.0002,0.0001 0.0004,0.0001l0 0.0018c0,0.0005 0.0004,0.0009 0.0009,0.001 0.0009,0.0002 0.0018,0.0003 0.0027,0.0003l0 -0.0095c-0.0014,0 -0.0026,-0.0012 -0.0026,-0.0026 0,-0.0014 0.0012,-0.0026 0.0026,-0.0026l0 -0.0095c-0.0009,0 -0.0018,0.0001 -0.0027,0.0003 -0.0005,0.0001 -0.0009,0.0005 -0.0009,0.001l-0 0z"/>
 </g>
</svg>
