<?xml version="1.0" encoding="UTF-8"?>
<!DOCTYPE svg PUBLIC "-//W3C//DTD SVG 1.1//EN" "http://www.w3.org/Graphics/SVG/1.1/DTD/svg11.dtd">
<!-- Creator: CorelDRAW -->
<svg xmlns="http://www.w3.org/2000/svg" xml:space="preserve" width="8.9232mm" height="9.79mm" version="1.1" style="shape-rendering:geometricPrecision; text-rendering:geometricPrecision; image-rendering:optimizeQuality; fill-rule:evenodd; clip-rule:evenodd"
viewBox="0 0 0.0318 0.0349"
 xmlns:xlink="http://www.w3.org/1999/xlink">
 <defs>
  <style type="text/css">
   <![CDATA[
    .fil0 {fill:white;fill-rule:nonzero}
   ]]>
  </style>
 </defs>
 <g id="Layer_x0020_1">
  <metadata id="CorelCorpID_0Corel-Layer"/>
  <path class="fil0" d="M0.0171 0.0322l-0.0046 -0.0046 0.0102 -0.0102 0.0046 0.0046 -0.0102 0.0102zm-0.0005 -0.0311l0 0.0054 0.0054 0 -0.0054 -0.0054zm-0.0064 0.0255l-0.0062 0 0 -0.0023 0.0085 0 0.0031 -0.0031 -0.0116 0 0 -0.0023 0.0139 0 0.0053 -0.0053 0 -0.0048 -0.0089 0 0 -0.0089 -0.0142 0 0 0.0319 0.0082 0 0.0012 -0.0041 0.0002 -0.0006 0.0005 -0.0005zm-0.0062 -0.013l0.0153 0 0 0.0023 -0.0153 0 0 -0.0023zm0.0204 0.0021l0.003 -0.003 0.0046 0.0046 -0.003 0.003 -0.0046 -0.0046zm-0.0136 0.0161l-0.0009 0.003 0.0053 -0.0015 -0.0037 -0.0037 -0.0006 0.0022z"/>
 </g>
</svg>
